<svg xmlns="http://www.w3.org/2000/svg" xmlns:xlink="http://www.w3.org/1999/xlink" width="150" zoomAndPan="magnify" viewBox="0 0 112.5 44.999999" height="60" preserveAspectRatio="xMidYMid meet" version="1.0"><defs><g/></defs><g fill="#e73202" fill-opacity="1"><g transform="translate(16.352196, 19.863775)"><g><path d="M 12.667969 -8.679688 C 12.667969 -8.679688 15.71875 -9.269531 15.71875 -12.082031 C 15.71875 -14.546875 13.609375 -16.660156 8.328125 -16.660156 C 4.691406 -16.660156 1.40625 -16.421875 1.40625 -16.421875 L 1.40625 0 C 1.40625 0 4.691406 0.234375 8.445312 0.234375 C 14.3125 0.234375 16.421875 -1.878906 16.421875 -4.457031 C 16.421875 -7.976562 12.667969 -8.5625 12.667969 -8.5625 Z M 7.507812 -12.433594 L 8.328125 -12.433594 C 9.148438 -12.433594 9.621094 -11.964844 9.621094 -11.378906 C 9.621094 -10.792969 9.148438 -10.324219 8.328125 -10.324219 L 7.507812 -10.324219 Z M 8.445312 -3.988281 C 7.976562 -3.988281 7.507812 -3.988281 7.507812 -3.988281 L 7.507812 -6.335938 L 8.445312 -6.335938 C 9.386719 -6.335938 9.855469 -5.867188 9.855469 -5.160156 C 9.855469 -4.457031 9.386719 -3.988281 8.445312 -3.988281 Z M 8.445312 -3.988281 "/></g></g></g><g fill="#ffffff" fill-opacity="1"><g transform="translate(33.477353, 19.863775)"><g><path d="M 1.171875 0 L 6.804688 0 L 6.804688 -17.363281 L 1.171875 -17.363281 Z M 1.171875 0 "/></g></g></g><g fill="#ffffff" fill-opacity="1"><g transform="translate(41.45316, 19.863775)"><g><path d="M 0.703125 -6.21875 C 0.703125 -2.582031 3.636719 0.351562 7.859375 0.351562 C 12.082031 0.351562 15.015625 -2.582031 15.015625 -6.21875 C 15.015625 -9.855469 12.082031 -12.785156 7.859375 -12.785156 C 3.636719 -12.785156 0.703125 -9.855469 0.703125 -6.21875 Z M 9.386719 -6.21875 C 9.386719 -5.160156 8.679688 -4.457031 7.859375 -4.457031 C 7.039062 -4.457031 6.335938 -5.160156 6.335938 -6.21875 C 6.335938 -7.273438 7.039062 -7.976562 7.859375 -7.976562 C 8.679688 -7.976562 9.386719 -7.273438 9.386719 -6.21875 Z M 9.386719 -6.21875 "/></g></g></g><g fill="#ffffff" fill-opacity="1"><g transform="translate(57.1702, 19.863775)"><g><path d="M 0.703125 -6.21875 C 0.703125 -2.582031 3.636719 0.351562 7.859375 0.351562 C 12.082031 0.351562 15.015625 -2.582031 15.015625 -6.21875 C 15.015625 -9.855469 12.082031 -12.785156 7.859375 -12.785156 C 3.636719 -12.785156 0.703125 -9.855469 0.703125 -6.21875 Z M 9.386719 -6.21875 C 9.386719 -5.160156 8.679688 -4.457031 7.859375 -4.457031 C 7.039062 -4.457031 6.335938 -5.160156 6.335938 -6.21875 C 6.335938 -7.273438 7.039062 -7.976562 7.859375 -7.976562 C 8.679688 -7.976562 9.386719 -7.273438 9.386719 -6.21875 Z M 9.386719 -6.21875 "/></g></g></g><g fill="#ffffff" fill-opacity="1"><g transform="translate(72.88724, 19.863775)"><g><path d="M 17.597656 -12.785156 C 15.25 -12.785156 13.84375 -10.558594 13.84375 -10.558594 C 13.84375 -10.558594 12.667969 -12.785156 10.324219 -12.785156 C 7.976562 -12.785156 7.039062 -11.027344 7.039062 -11.027344 L 6.570312 -12.433594 L 1.171875 -12.433594 L 1.171875 0 L 6.804688 0 L 6.804688 -6.570312 C 6.804688 -7.507812 7.273438 -7.976562 7.742188 -7.976562 C 8.210938 -7.976562 8.679688 -7.507812 8.679688 -6.570312 L 8.679688 0 L 14.3125 0 L 14.3125 -6.570312 C 14.3125 -7.507812 14.78125 -7.976562 15.25 -7.976562 C 15.71875 -7.976562 16.1875 -7.507812 16.1875 -6.570312 L 16.1875 0 L 21.820312 0 L 21.820312 -6.570312 C 21.820312 -10.910156 19.941406 -12.785156 17.597656 -12.785156 Z M 17.597656 -12.785156 "/></g></g></g><g fill="#e73202" fill-opacity="1"><g transform="translate(22.911862, 39.635453)"><g><path d="M 12.667969 -8.679688 C 12.667969 -8.679688 15.71875 -9.269531 15.71875 -12.082031 C 15.71875 -14.546875 13.609375 -16.660156 8.328125 -16.660156 C 4.691406 -16.660156 1.40625 -16.421875 1.40625 -16.421875 L 1.40625 0 C 1.40625 0 4.691406 0.234375 8.445312 0.234375 C 14.3125 0.234375 16.421875 -1.878906 16.421875 -4.457031 C 16.421875 -7.976562 12.667969 -8.5625 12.667969 -8.5625 Z M 7.507812 -12.433594 L 8.328125 -12.433594 C 9.148438 -12.433594 9.621094 -11.964844 9.621094 -11.378906 C 9.621094 -10.792969 9.148438 -10.324219 8.328125 -10.324219 L 7.507812 -10.324219 Z M 8.445312 -3.988281 C 7.976562 -3.988281 7.507812 -3.988281 7.507812 -3.988281 L 7.507812 -6.335938 L 8.445312 -6.335938 C 9.386719 -6.335938 9.855469 -5.867188 9.855469 -5.160156 C 9.855469 -4.457031 9.386719 -3.988281 8.445312 -3.988281 Z M 8.445312 -3.988281 "/></g></g></g><g fill="#ffffff" fill-opacity="1"><g transform="translate(40.037019, 39.635453)"><g><path d="M 7.039062 -11.027344 L 6.570312 -12.433594 L 1.171875 -12.433594 L 1.171875 0 L 6.804688 0 L 6.804688 -5.160156 C 6.804688 -6.804688 7.742188 -7.742188 8.914062 -7.742188 C 9.621094 -7.742188 10.558594 -7.273438 10.558594 -7.273438 L 11.496094 -12.433594 C 11.496094 -12.433594 10.792969 -12.785156 9.855469 -12.785156 C 7.976562 -12.785156 7.039062 -11.027344 7.039062 -11.027344 Z M 7.039062 -11.027344 "/></g></g></g><g fill="#ffffff" fill-opacity="1"><g transform="translate(51.296994, 39.635453)"><g><path d="M 6.6875 -12.785156 C 3.519531 -12.785156 1.757812 -10.910156 1.757812 -10.910156 L 3.753906 -7.742188 C 3.753906 -7.742188 4.691406 -8.679688 5.867188 -8.679688 C 7.742188 -8.679688 7.976562 -7.390625 7.976562 -7.390625 L 6.101562 -7.390625 C 2.113281 -7.390625 0.46875 -5.75 0.46875 -3.519531 C 0.46875 -1.289062 2.113281 0.351562 4.691406 0.351562 C 6.804688 0.351562 7.742188 -1.40625 7.742188 -1.40625 L 8.210938 0 L 13.609375 0 C 13.609375 -1.828125 13.609375 -4.199219 13.609375 -6.21875 C 13.609375 -9.855469 10.675781 -12.785156 6.6875 -12.785156 Z M 6.804688 -3.402344 C 6.453125 -3.402344 6.101562 -3.753906 6.101562 -4.105469 C 6.101562 -4.808594 6.6875 -5.394531 7.976562 -5.394531 C 7.976562 -3.988281 7.390625 -3.402344 6.804688 -3.402344 Z M 6.804688 -3.402344 "/></g></g></g><g fill="#ffffff" fill-opacity="1"><g transform="translate(65.841125, 39.635453)"><g><path d="M 1.171875 -12.433594 L 1.171875 0 L 6.804688 0 L 6.804688 -12.433594 Z M 1.171875 -13.84375 L 6.804688 -13.84375 L 6.804688 -18.300781 L 1.171875 -18.300781 Z M 1.171875 -13.84375 "/></g></g></g><g fill="#ffffff" fill-opacity="1"><g transform="translate(73.816933, 39.635453)"><g><path d="M 10.089844 -12.785156 C 7.976562 -12.785156 7.039062 -11.027344 7.039062 -11.027344 L 6.570312 -12.433594 L 1.171875 -12.433594 L 1.171875 0 L 6.804688 0 L 6.804688 -6.570312 C 6.804688 -7.507812 7.273438 -7.976562 7.742188 -7.976562 C 8.210938 -7.976562 8.679688 -7.507812 8.679688 -6.570312 L 8.679688 0 L 14.3125 0 L 14.3125 -6.570312 C 14.3125 -10.910156 12.433594 -12.785156 10.089844 -12.785156 Z M 10.089844 -12.785156 "/></g></g></g></svg>