<svg xmlns="http://www.w3.org/2000/svg" xmlns:xlink="http://www.w3.org/1999/xlink" width="150" zoomAndPan="magnify" viewBox="0 0 112.5 44.999999" height="60" preserveAspectRatio="xMidYMid meet" version="1.0"><defs><g/></defs><g fill="#e73202" fill-opacity="1"><g transform="translate(16.336572, 19.784651)"><g><path d="M 12.671875 -8.683594 C 12.671875 -8.683594 15.722656 -9.269531 15.722656 -12.085938 C 15.722656 -14.550781 13.613281 -16.664062 8.332031 -16.664062 C 4.695312 -16.664062 1.40625 -16.429688 1.40625 -16.429688 L 1.40625 0 C 1.40625 0 4.695312 0.234375 8.449219 0.234375 C 14.316406 0.234375 16.429688 -1.878906 16.429688 -4.457031 C 16.429688 -7.980469 12.671875 -8.566406 12.671875 -8.566406 Z M 7.511719 -12.4375 L 8.332031 -12.4375 C 9.152344 -12.4375 9.621094 -11.96875 9.621094 -11.382812 C 9.621094 -10.796875 9.152344 -10.324219 8.332031 -10.324219 L 7.511719 -10.324219 Z M 8.449219 -3.988281 C 7.980469 -3.988281 7.511719 -3.988281 7.511719 -3.988281 L 7.511719 -6.335938 L 8.449219 -6.335938 C 9.386719 -6.335938 9.855469 -5.867188 9.855469 -5.164062 C 9.855469 -4.457031 9.386719 -3.988281 8.449219 -3.988281 Z M 8.449219 -3.988281 "/></g></g></g><g fill="#ffffff" fill-opacity="1"><g transform="translate(33.475243, 19.784651)"><g><path d="M 1.171875 0 L 6.804688 0 L 6.804688 -17.367188 L 1.171875 -17.367188 Z M 1.171875 0 "/></g></g></g><g fill="#ffffff" fill-opacity="1"><g transform="translate(41.45237, 19.784651)"><g><path d="M 0.703125 -6.21875 C 0.703125 -2.582031 3.636719 0.351562 7.863281 0.351562 C 12.085938 0.351562 15.019531 -2.582031 15.019531 -6.21875 C 15.019531 -9.855469 12.085938 -12.789062 7.863281 -12.789062 C 3.636719 -12.789062 0.703125 -9.855469 0.703125 -6.21875 Z M 9.386719 -6.21875 C 9.386719 -5.164062 8.683594 -4.457031 7.863281 -4.457031 C 7.039062 -4.457031 6.335938 -5.164062 6.335938 -6.21875 C 6.335938 -7.273438 7.039062 -7.980469 7.863281 -7.980469 C 8.683594 -7.980469 9.386719 -7.273438 9.386719 -6.21875 Z M 9.386719 -6.21875 "/></g></g></g><g fill="#ffffff" fill-opacity="1"><g transform="translate(57.172009, 19.784651)"><g><path d="M 0.703125 -6.21875 C 0.703125 -2.582031 3.636719 0.351562 7.863281 0.351562 C 12.085938 0.351562 15.019531 -2.582031 15.019531 -6.21875 C 15.019531 -9.855469 12.085938 -12.789062 7.863281 -12.789062 C 3.636719 -12.789062 0.703125 -9.855469 0.703125 -6.21875 Z M 9.386719 -6.21875 C 9.386719 -5.164062 8.683594 -4.457031 7.863281 -4.457031 C 7.039062 -4.457031 6.335938 -5.164062 6.335938 -6.21875 C 6.335938 -7.273438 7.039062 -7.980469 7.863281 -7.980469 C 8.683594 -7.980469 9.386719 -7.273438 9.386719 -6.21875 Z M 9.386719 -6.21875 "/></g></g></g><g fill="#ffffff" fill-opacity="1"><g transform="translate(72.891648, 19.784651)"><g><path d="M 17.601562 -12.789062 C 15.253906 -12.789062 13.847656 -10.5625 13.847656 -10.5625 C 13.847656 -10.5625 12.671875 -12.789062 10.324219 -12.789062 C 7.980469 -12.789062 7.039062 -11.03125 7.039062 -11.03125 L 6.570312 -12.4375 L 1.171875 -12.4375 L 1.171875 0 L 6.804688 0 L 6.804688 -6.570312 C 6.804688 -7.511719 7.273438 -7.980469 7.746094 -7.980469 C 8.214844 -7.980469 8.683594 -7.511719 8.683594 -6.570312 L 8.683594 0 L 14.316406 0 L 14.316406 -6.570312 C 14.316406 -7.511719 14.785156 -7.980469 15.253906 -7.980469 C 15.722656 -7.980469 16.191406 -7.511719 16.191406 -6.570312 L 16.191406 0 L 21.824219 0 L 21.824219 -6.570312 C 21.824219 -10.914062 19.949219 -12.789062 17.601562 -12.789062 Z M 17.601562 -12.789062 "/></g></g></g><g fill="#e73202" fill-opacity="1"><g transform="translate(22.905035, 39.945049)"><g><path d="M 12.671875 -8.683594 C 12.671875 -8.683594 15.722656 -9.269531 15.722656 -12.085938 C 15.722656 -14.550781 13.613281 -16.664062 8.332031 -16.664062 C 4.695312 -16.664062 1.40625 -16.429688 1.40625 -16.429688 L 1.40625 0 C 1.40625 0 4.695312 0.234375 8.449219 0.234375 C 14.316406 0.234375 16.429688 -1.878906 16.429688 -4.457031 C 16.429688 -7.980469 12.671875 -8.566406 12.671875 -8.566406 Z M 7.511719 -12.4375 L 8.332031 -12.4375 C 9.152344 -12.4375 9.621094 -11.96875 9.621094 -11.382812 C 9.621094 -10.796875 9.152344 -10.324219 8.332031 -10.324219 L 7.511719 -10.324219 Z M 8.449219 -3.988281 C 7.980469 -3.988281 7.511719 -3.988281 7.511719 -3.988281 L 7.511719 -6.335938 L 8.449219 -6.335938 C 9.386719 -6.335938 9.855469 -5.867188 9.855469 -5.164062 C 9.855469 -4.457031 9.386719 -3.988281 8.449219 -3.988281 Z M 8.449219 -3.988281 "/></g></g></g><g fill="#ffffff" fill-opacity="1"><g transform="translate(40.043706, 39.945049)"><g><path d="M 7.039062 -11.03125 L 6.570312 -12.4375 L 1.171875 -12.4375 L 1.171875 0 L 6.804688 0 L 6.804688 -5.164062 C 6.804688 -6.804688 7.746094 -7.746094 8.917969 -7.746094 C 9.621094 -7.746094 10.5625 -7.273438 10.5625 -7.273438 L 11.5 -12.4375 C 11.5 -12.4375 10.796875 -12.789062 9.855469 -12.789062 C 7.980469 -12.789062 7.039062 -11.03125 7.039062 -11.03125 Z M 7.039062 -11.03125 "/></g></g></g><g fill="#ffffff" fill-opacity="1"><g transform="translate(51.305543, 39.945049)"><g><path d="M 6.6875 -12.789062 C 3.519531 -12.789062 1.761719 -10.914062 1.761719 -10.914062 L 3.753906 -7.746094 C 3.753906 -7.746094 4.695312 -8.683594 5.867188 -8.683594 C 7.746094 -8.683594 7.980469 -7.390625 7.980469 -7.390625 L 6.101562 -7.390625 C 2.113281 -7.390625 0.46875 -5.75 0.46875 -3.519531 C 0.46875 -1.289062 2.113281 0.351562 4.695312 0.351562 C 6.804688 0.351562 7.746094 -1.40625 7.746094 -1.40625 L 8.214844 0 L 13.613281 0 C 13.613281 -1.832031 13.613281 -4.199219 13.613281 -6.21875 C 13.613281 -9.855469 10.679688 -12.789062 6.6875 -12.789062 Z M 6.804688 -3.402344 C 6.453125 -3.402344 6.101562 -3.753906 6.101562 -4.105469 C 6.101562 -4.8125 6.6875 -5.398438 7.980469 -5.398438 C 7.980469 -3.988281 7.390625 -3.402344 6.804688 -3.402344 Z M 6.804688 -3.402344 "/></g></g></g><g fill="#ffffff" fill-opacity="1"><g transform="translate(65.852078, 39.945049)"><g><path d="M 1.171875 -12.4375 L 1.171875 0 L 6.804688 0 L 6.804688 -12.4375 Z M 1.171875 -13.847656 L 6.804688 -13.847656 L 6.804688 -18.304688 L 1.171875 -18.304688 Z M 1.171875 -13.847656 "/></g></g></g><g fill="#ffffff" fill-opacity="1"><g transform="translate(73.829205, 39.945049)"><g><path d="M 10.089844 -12.789062 C 7.980469 -12.789062 7.039062 -11.03125 7.039062 -11.03125 L 6.570312 -12.4375 L 1.171875 -12.4375 L 1.171875 0 L 6.804688 0 L 6.804688 -6.570312 C 6.804688 -7.511719 7.273438 -7.980469 7.746094 -7.980469 C 8.214844 -7.980469 8.683594 -7.511719 8.683594 -6.570312 L 8.683594 0 L 14.316406 0 L 14.316406 -6.570312 C 14.316406 -10.914062 12.4375 -12.789062 10.089844 -12.789062 Z M 10.089844 -12.789062 "/></g></g></g><g fill="#e73202" fill-opacity="1"><g transform="translate(94.362516, 40.414292)"><g><path d="M 0 -3.652344 L -2.191406 -4.328125 L 0 -4.328125 L 0 -5.789062 L -3.933594 -5.789062 L -3.933594 -3.710938 L -1.796875 -3.0625 L -3.933594 -2.417969 L -3.933594 -0.335938 L 0 -0.335938 L 0 -1.796875 L -2.191406 -1.796875 L 0 -2.472656 Z M 0 -3.652344 "/></g></g></g><g fill="#e73202" fill-opacity="1"><g transform="translate(94.362516, 34.288704)"><g><path d="M -3.0625 -1.742188 C -3.0625 -0.871094 -2.359375 -0.167969 -1.488281 -0.167969 C -0.617188 -0.167969 0.0859375 -0.871094 0.0859375 -1.828125 C 0.0859375 -2.585938 -0.367188 -3.007812 -0.367188 -3.007812 L -1.125 -2.527344 C -1.125 -2.527344 -0.898438 -2.304688 -0.898438 -2.023438 C -0.898438 -1.574219 -1.207031 -1.515625 -1.207031 -1.515625 L -1.207031 -3.316406 C -1.230469 -3.316406 -1.464844 -3.316406 -1.488281 -3.316406 C -2.359375 -3.316406 -3.0625 -2.613281 -3.0625 -1.742188 Z M -1.742188 -1.488281 C -1.96875 -1.488281 -2.078125 -1.601562 -2.078125 -1.742188 C -2.078125 -1.882812 -1.96875 -1.996094 -1.742188 -1.996094 Z M -1.742188 -1.488281 "/></g></g></g><g fill="#e73202" fill-opacity="1"><g transform="translate(94.362516, 30.86062)"><g><path d="M -1.488281 -0.167969 C -0.476562 -0.167969 0.0859375 -0.730469 0.0859375 -1.347656 C 0.0859375 -1.910156 -0.335938 -2.136719 -0.335938 -2.136719 C -0.335938 -2.136719 -0.335938 -2.136719 0 -2.246094 L 0 -3.484375 L -4.160156 -3.484375 L -4.160156 -2.136719 L -2.640625 -2.136719 C -2.640625 -2.136719 -3.0625 -1.910156 -3.0625 -1.347656 C -3.0625 -0.730469 -2.5 -0.167969 -1.488281 -0.167969 Z M -1.488281 -1.574219 C -1.769531 -1.574219 -1.910156 -1.714844 -1.910156 -1.882812 C -1.910156 -2.050781 -1.769531 -2.191406 -1.488281 -2.191406 C -1.207031 -2.191406 -1.066406 -2.050781 -1.066406 -1.882812 C -1.066406 -1.714844 -1.207031 -1.574219 -1.488281 -1.574219 Z M -1.488281 -1.574219 "/></g></g></g><g fill="#e73202" fill-opacity="1"><g transform="translate(94.362516, 27.095352)"><g><path d="M -2.976562 -0.28125 L 0 -0.28125 L 0 -1.628906 L -2.976562 -1.628906 Z M -3.316406 -0.28125 L -3.316406 -1.628906 L -4.382812 -1.628906 L -4.382812 -0.28125 Z M -3.316406 -0.28125 "/></g></g></g><g fill="#e73202" fill-opacity="1"><g transform="translate(94.362516, 25.184615)"><g><path d="M -3.0625 -1.601562 C -3.0625 -0.84375 -2.613281 -0.421875 -2.613281 -0.421875 L -1.855469 -0.898438 C -1.855469 -0.898438 -2.078125 -1.125 -2.078125 -1.40625 C -2.078125 -1.855469 -1.769531 -1.910156 -1.769531 -1.910156 L -1.769531 -1.460938 C -1.769531 -0.503906 -1.375 -0.113281 -0.84375 -0.113281 C -0.308594 -0.113281 0.0859375 -0.503906 0.0859375 -1.125 C 0.0859375 -1.628906 -0.335938 -1.855469 -0.335938 -1.855469 L 0 -1.96875 L 0 -3.257812 C -0.4375 -3.257812 -1.007812 -3.257812 -1.488281 -3.257812 C -2.359375 -3.257812 -3.0625 -2.558594 -3.0625 -1.601562 Z M -0.816406 -1.628906 C -0.816406 -1.546875 -0.898438 -1.460938 -0.984375 -1.460938 C -1.152344 -1.460938 -1.292969 -1.601562 -1.292969 -1.910156 C -0.957031 -1.910156 -0.816406 -1.769531 -0.816406 -1.628906 Z M -0.816406 -1.628906 "/></g></g></g></svg>